<?xml version="1.0" encoding="iso-8859-1"?>
<!-- Generator: Adobe Illustrator 18.1.1, SVG Export Plug-In . SVG Version: 6.00 Build 0)  -->
<svg version="1.1" fill="#fff" id="Capa_1" xmlns="http://www.w3.org/2000/svg" xmlns:xlink="http://www.w3.org/1999/xlink" x="0px" y="0px"
	 viewBox="0 0 403.571 403.571" style="enable-background:new 0 0 403.571 403.571;" xml:space="preserve">
<g>
	<g id="Layer_5_45_">
		<g>
			<g>
				<g>
					<path d="M320.701,89.183c1.227-1.301,2.23-3.831,2.23-5.62v-3.386c0-1.79-1.462-3.252-3.252-3.252H3.252
						C1.463,76.925,0,78.388,0,80.177v3.386c0,1.789,1.002,4.319,2.229,5.62c0,0,9.557,10.152,9.557,20.066
						c0,9.914-9.557,20.065-9.557,20.065C1.002,130.617,0,133.147,0,134.935v4.122c0,1.79,1.002,4.318,2.229,5.622
						c0,0,9.557,10.152,9.557,20.065c0,9.914-9.557,20.066-9.557,20.066C1.002,186.112,0,188.642,0,190.431v4.123
						c0,1.788,1.002,4.318,2.229,5.621c0,0,9.557,10.152,9.557,20.066c0,9.913-9.557,20.065-9.557,20.065
						C1.002,241.608,0,244.138,0,245.927v1.759c0,1.789,1.463,3.253,3.252,3.253h316.427c1.79,0,3.252-1.464,3.252-3.253v-1.759
						c0-1.79-1.003-4.319-2.23-5.621c0,0-9.557-10.152-9.557-20.065c0-9.914,9.557-20.066,9.557-20.066
						c1.227-1.303,2.23-3.833,2.23-5.621v-4.123c0-1.789-1.003-4.318-2.23-5.621c0,0-9.557-10.152-9.557-20.066
						c0-9.914,9.557-20.065,9.557-20.065c1.227-1.303,2.23-3.832,2.23-5.622v-4.122c0-1.789-1.003-4.318-2.23-5.621
						c0,0-9.557-10.151-9.557-20.065S320.701,89.183,320.701,89.183z M291.209,229.797c0,1.789-1.463,3.252-3.252,3.252H34.974
						c-1.79,0-3.253-1.463-3.253-3.252V98.066c0-1.789,1.464-3.252,3.253-3.252h252.982c1.79,0,3.252,1.463,3.252,3.252
						L291.209,229.797L291.209,229.797z"/>
					<path d="M263.448,118.397c0,1.789-1.464,3.252-3.253,3.252H62.736c-1.789,0-3.252-1.463-3.252-3.252v-3.152
						c0-1.789,1.463-3.253,3.252-3.253h197.459c1.789,0,3.253,1.464,3.253,3.253V118.397z"/>
					<path d="M263.448,212.619c0,1.789-1.464,3.252-3.253,3.252H62.736c-1.789,0-3.252-1.463-3.252-3.252v-3.152
						c0-1.789,1.463-3.252,3.252-3.252h197.459c1.789,0,3.253,1.463,3.253,3.252V212.619z"/>
					<path d="M98.588,143.765c0.792-1.604,2.088-1.604,2.879,0l4.622,9.364c0.792,1.604,2.888,3.127,4.658,3.384l10.334,1.5
						c1.771,0.257,2.17,1.49,0.89,2.739l-7.478,7.288c-1.281,1.25-2.082,3.713-1.779,5.477l1.765,10.292
						c0.302,1.763-0.746,2.525-2.329,1.692l-9.242-4.859c-1.583-0.833-4.174-0.833-5.758,0l-9.243,4.859
						c-1.583,0.833-2.631,0.071-2.329-1.692l1.765-10.292c0.303-1.764-0.498-4.227-1.779-5.477l-7.477-7.288
						c-1.281-1.249-0.881-2.481,0.89-2.739l10.333-1.5c1.77-0.257,3.866-1.781,4.659-3.384L98.588,143.765z"/>
					<path d="M160.026,143.765c0.792-1.604,2.087-1.604,2.879,0l4.621,9.364c0.792,1.604,2.888,3.127,4.658,3.384l10.333,1.5
						c1.771,0.257,2.17,1.49,0.89,2.739l-7.477,7.288c-1.281,1.25-2.082,3.713-1.779,5.477l1.765,10.292
						c0.303,1.763-0.746,2.525-2.329,1.692l-9.243-4.859c-1.583-0.832-4.174-0.832-5.757,0l-9.243,4.859
						c-1.584,0.833-2.632,0.071-2.33-1.692l1.766-10.292c0.303-1.764-0.499-4.227-1.779-5.477l-7.478-7.288
						c-1.281-1.249-0.88-2.481,0.89-2.739l10.333-1.5c1.771-0.257,3.867-1.781,4.659-3.384L160.026,143.765z"/>
				</g>
				<path d="M225.083,143.549c0.839-1.701,2.213-1.701,3.053,0l4.901,9.929c0.838,1.701,3.061,3.315,4.938,3.588l10.957,1.591
					c1.877,0.273,2.301,1.58,0.943,2.904l-7.929,7.728c-1.357,1.325-2.207,3.937-1.886,5.807l1.871,10.913
					c0.321,1.87-0.79,2.677-2.469,1.794l-9.802-5.152c-1.679-0.883-4.425-0.883-6.104,0l-9.801,5.152
					c-1.679,0.883-2.79,0.075-2.469-1.794l1.872-10.913c0.321-1.87-0.529-4.482-1.887-5.807l-7.929-7.728
					c-1.358-1.324-0.934-2.631,0.943-2.904l10.957-1.591c1.877-0.273,4.101-1.888,4.94-3.588L225.083,143.549z"/>
			</g>
			<path d="M400.607,143.921l-54.04-7.646c-0.775-0.144-0.745,0.393-0.745,0.396c0,0-1.573,13.639-4.914,16.979
				c-0.232,0.232-0.27,0.857,0.231,0.969l23.506,3.371c1.878,0.266,3.197,2.02,2.931,3.898l-19.567,138.299
				c-0.266,1.88-2.021,3.199-3.897,2.932L115.52,270.777c0,0-2.176-0.38-4.269-0.38c-17.495,0-69.978,0-69.978,0
				c-3.378-0.098-2.166,8.844,1.275,9.213l332.208,47.003c1.878,0.266,3.633-1.054,3.898-2.932l0.262-1.847
				c0.266-1.878-0.413-4.682-1.507-6.231c0,0-8.524-12.079-7.052-22.487s13.014-19.646,13.014-19.646
				c1.48-1.186,2.91-3.692,3.175-5.569l0.613-4.329c0.266-1.879-0.412-4.683-1.506-6.232c0,0-8.526-12.079-7.055-22.486
				c1.474-10.409,13.015-19.647,13.015-19.647c1.482-1.185,2.912-3.691,3.177-5.569l0.613-4.329
				c0.266-1.877-0.412-4.683-1.506-6.232c0,0-8.526-12.078-7.053-22.485c1.472-10.409,13.014-19.647,13.014-19.647
				c1.481-1.186,2.911-3.691,3.176-5.57l0.503-3.555C403.804,145.94,402.486,144.186,400.607,143.921z"/>
		</g>
	</g>
</g>
<g>
</g>
<g>
</g>
<g>
</g>
<g>
</g>
<g>
</g>
<g>
</g>
<g>
</g>
<g>
</g>
<g>
</g>
<g>
</g>
<g>
</g>
<g>
</g>
<g>
</g>
<g>
</g>
<g>
</g>
</svg>
